<mxfile host="app.diagrams.net" modified="2023-06-17T16:13:21.267Z" agent="Mozilla/5.0 (Windows NT 10.0; Win64; x64) AppleWebKit/537.36 (KHTML, like Gecko) Chrome/114.0.0.0 Safari/537.36 Edg/114.0.1823.51" etag="SDUMtGjN-1eTqkdDIuA4" version="21.2.9" type="github">
  <diagram name="Sayfa -1" id="0YMGgGWAFJ8JEY7yg6Ig">
    <mxGraphModel dx="724" dy="427" grid="0" gridSize="10" guides="1" tooltips="1" connect="1" arrows="1" fold="1" page="1" pageScale="1" pageWidth="827" pageHeight="1169" background="#FFCCFF" math="0" shadow="0">
      <root>
        <mxCell id="0" />
        <mxCell id="1" parent="0" />
        <mxCell id="Q3F3CRCfY1M6JmlHT80E-1" value="" style="endArrow=classic;html=1;rounded=0;" edge="1" parent="1">
          <mxGeometry width="50" height="50" relative="1" as="geometry">
            <mxPoint x="320" y="360" as="sourcePoint" />
            <mxPoint x="320" y="180" as="targetPoint" />
          </mxGeometry>
        </mxCell>
        <mxCell id="Q3F3CRCfY1M6JmlHT80E-2" value="" style="endArrow=classic;html=1;rounded=0;" edge="1" parent="1">
          <mxGeometry width="50" height="50" relative="1" as="geometry">
            <mxPoint x="320" y="360" as="sourcePoint" />
            <mxPoint x="554" y="360" as="targetPoint" />
          </mxGeometry>
        </mxCell>
        <mxCell id="Q3F3CRCfY1M6JmlHT80E-3" value="1" style="text;strokeColor=none;align=center;fillColor=none;html=1;verticalAlign=middle;whiteSpace=wrap;rounded=0;" vertex="1" parent="1">
          <mxGeometry x="330" y="360" width="60" height="30" as="geometry" />
        </mxCell>
        <mxCell id="Q3F3CRCfY1M6JmlHT80E-4" value="2" style="text;strokeColor=none;align=center;fillColor=none;html=1;verticalAlign=middle;whiteSpace=wrap;rounded=0;" vertex="1" parent="1">
          <mxGeometry x="371" y="360" width="60" height="30" as="geometry" />
        </mxCell>
        <mxCell id="Q3F3CRCfY1M6JmlHT80E-5" value="3" style="text;strokeColor=none;align=center;fillColor=none;html=1;verticalAlign=middle;whiteSpace=wrap;rounded=0;" vertex="1" parent="1">
          <mxGeometry x="411" y="360" width="60" height="30" as="geometry" />
        </mxCell>
        <mxCell id="Q3F3CRCfY1M6JmlHT80E-6" value="4" style="text;strokeColor=none;align=center;fillColor=none;html=1;verticalAlign=middle;whiteSpace=wrap;rounded=0;" vertex="1" parent="1">
          <mxGeometry x="450" y="360" width="60" height="30" as="geometry" />
        </mxCell>
        <mxCell id="Q3F3CRCfY1M6JmlHT80E-7" value="3" style="text;strokeColor=none;align=center;fillColor=none;html=1;verticalAlign=middle;whiteSpace=wrap;rounded=0;" vertex="1" parent="1">
          <mxGeometry x="280" y="224" width="60" height="30" as="geometry" />
        </mxCell>
        <mxCell id="Q3F3CRCfY1M6JmlHT80E-8" value="2" style="text;strokeColor=none;align=center;fillColor=none;html=1;verticalAlign=middle;whiteSpace=wrap;rounded=0;" vertex="1" parent="1">
          <mxGeometry x="280" y="264" width="60" height="30" as="geometry" />
        </mxCell>
        <mxCell id="Q3F3CRCfY1M6JmlHT80E-9" value="1" style="text;strokeColor=none;align=center;fillColor=none;html=1;verticalAlign=middle;whiteSpace=wrap;rounded=0;" vertex="1" parent="1">
          <mxGeometry x="280" y="305" width="60" height="30" as="geometry" />
        </mxCell>
        <mxCell id="Q3F3CRCfY1M6JmlHT80E-11" value="" style="endArrow=none;html=1;rounded=0;fillColor=#d80073;strokeColor=#A50040;" edge="1" parent="1">
          <mxGeometry width="50" height="50" relative="1" as="geometry">
            <mxPoint x="440" y="278.71" as="sourcePoint" />
            <mxPoint x="400" y="278.71" as="targetPoint" />
          </mxGeometry>
        </mxCell>
        <mxCell id="Q3F3CRCfY1M6JmlHT80E-12" value="" style="endArrow=none;html=1;rounded=0;fillColor=#d80073;strokeColor=#A50040;" edge="1" parent="1" source="Q3F3CRCfY1M6JmlHT80E-24">
          <mxGeometry width="50" height="50" relative="1" as="geometry">
            <mxPoint x="480" y="238.70999999999998" as="sourcePoint" />
            <mxPoint x="440" y="238.70999999999998" as="targetPoint" />
          </mxGeometry>
        </mxCell>
        <mxCell id="Q3F3CRCfY1M6JmlHT80E-13" value="" style="endArrow=none;html=1;rounded=0;fillColor=#d80073;strokeColor=#A50040;" edge="1" parent="1">
          <mxGeometry width="50" height="50" relative="1" as="geometry">
            <mxPoint x="360" y="359.43" as="sourcePoint" />
            <mxPoint x="320" y="359.43" as="targetPoint" />
          </mxGeometry>
        </mxCell>
        <mxCell id="Q3F3CRCfY1M6JmlHT80E-14" value="" style="endArrow=none;dashed=1;html=1;rounded=0;exitX=0.5;exitY=0;exitDx=0;exitDy=0;entryX=0.5;entryY=1;entryDx=0;entryDy=0;" edge="1" parent="1" target="Q3F3CRCfY1M6JmlHT80E-24">
          <mxGeometry width="50" height="50" relative="1" as="geometry">
            <mxPoint x="441" y="257" as="sourcePoint" />
            <mxPoint x="440" y="241" as="targetPoint" />
          </mxGeometry>
        </mxCell>
        <mxCell id="Q3F3CRCfY1M6JmlHT80E-15" value="" style="endArrow=none;dashed=1;html=1;rounded=0;exitX=0.5;exitY=0;exitDx=0;exitDy=0;" edge="1" parent="1">
          <mxGeometry width="50" height="50" relative="1" as="geometry">
            <mxPoint x="480.5" y="360" as="sourcePoint" />
            <mxPoint x="479.5" y="240" as="targetPoint" />
          </mxGeometry>
        </mxCell>
        <mxCell id="Q3F3CRCfY1M6JmlHT80E-16" value="" style="endArrow=none;dashed=1;html=1;rounded=0;" edge="1" parent="1" source="Q3F3CRCfY1M6JmlHT80E-34">
          <mxGeometry width="50" height="50" relative="1" as="geometry">
            <mxPoint x="401" y="360" as="sourcePoint" />
            <mxPoint x="400.5" y="280" as="targetPoint" />
          </mxGeometry>
        </mxCell>
        <mxCell id="Q3F3CRCfY1M6JmlHT80E-17" value="" style="endArrow=none;dashed=1;html=1;rounded=0;" edge="1" parent="1" source="Q3F3CRCfY1M6JmlHT80E-23">
          <mxGeometry width="50" height="50" relative="1" as="geometry">
            <mxPoint x="360" y="360" as="sourcePoint" />
            <mxPoint x="359.71" y="320" as="targetPoint" />
          </mxGeometry>
        </mxCell>
        <mxCell id="Q3F3CRCfY1M6JmlHT80E-20" value="" style="endArrow=none;html=1;rounded=0;fillColor=#d80073;strokeColor=#A50040;" edge="1" parent="1" source="Q3F3CRCfY1M6JmlHT80E-35">
          <mxGeometry width="50" height="50" relative="1" as="geometry">
            <mxPoint x="400" y="319.71" as="sourcePoint" />
            <mxPoint x="360" y="319.71" as="targetPoint" />
          </mxGeometry>
        </mxCell>
        <mxCell id="Q3F3CRCfY1M6JmlHT80E-28" value="" style="endArrow=none;dashed=1;html=1;rounded=0;exitX=0.5;exitY=0;exitDx=0;exitDy=0;" edge="1" parent="1" source="Q3F3CRCfY1M6JmlHT80E-33" target="Q3F3CRCfY1M6JmlHT80E-22">
          <mxGeometry width="50" height="50" relative="1" as="geometry">
            <mxPoint x="441" y="360" as="sourcePoint" />
            <mxPoint x="440" y="240" as="targetPoint" />
          </mxGeometry>
        </mxCell>
        <mxCell id="Q3F3CRCfY1M6JmlHT80E-22" value="" style="ellipse;whiteSpace=wrap;html=1;aspect=fixed;fillColor=#a20025;fontColor=#ffffff;strokeColor=#6F0000;" vertex="1" parent="1">
          <mxGeometry x="439" y="256" width="4" height="4" as="geometry" />
        </mxCell>
        <mxCell id="Q3F3CRCfY1M6JmlHT80E-29" value="" style="endArrow=none;dashed=1;html=1;rounded=0;" edge="1" parent="1" target="Q3F3CRCfY1M6JmlHT80E-23">
          <mxGeometry width="50" height="50" relative="1" as="geometry">
            <mxPoint x="360" y="360" as="sourcePoint" />
            <mxPoint x="359.71" y="320" as="targetPoint" />
          </mxGeometry>
        </mxCell>
        <mxCell id="Q3F3CRCfY1M6JmlHT80E-23" value="" style="ellipse;whiteSpace=wrap;html=1;aspect=fixed;fillColor=#a20025;fontColor=#ffffff;strokeColor=#6F0000;" vertex="1" parent="1">
          <mxGeometry x="358" y="337" width="4" height="4" as="geometry" />
        </mxCell>
        <mxCell id="Q3F3CRCfY1M6JmlHT80E-36" value="" style="endArrow=none;html=1;rounded=0;fillColor=#d80073;strokeColor=#A50040;" edge="1" parent="1" target="Q3F3CRCfY1M6JmlHT80E-35">
          <mxGeometry width="50" height="50" relative="1" as="geometry">
            <mxPoint x="400" y="319.71" as="sourcePoint" />
            <mxPoint x="360" y="319.71" as="targetPoint" />
          </mxGeometry>
        </mxCell>
        <mxCell id="Q3F3CRCfY1M6JmlHT80E-35" value="" style="ellipse;whiteSpace=wrap;html=1;aspect=fixed;fillColor=none;fontColor=#ffffff;strokeColor=#6F0000;" vertex="1" parent="1">
          <mxGeometry x="358" y="318" width="4" height="4" as="geometry" />
        </mxCell>
        <mxCell id="Q3F3CRCfY1M6JmlHT80E-37" value="" style="endArrow=none;dashed=1;html=1;rounded=0;" edge="1" parent="1" target="Q3F3CRCfY1M6JmlHT80E-34">
          <mxGeometry width="50" height="50" relative="1" as="geometry">
            <mxPoint x="401" y="360" as="sourcePoint" />
            <mxPoint x="400.5" y="280" as="targetPoint" />
          </mxGeometry>
        </mxCell>
        <mxCell id="Q3F3CRCfY1M6JmlHT80E-34" value="" style="ellipse;whiteSpace=wrap;html=1;aspect=fixed;fillColor=none;fontColor=#ffffff;strokeColor=#6F0000;" vertex="1" parent="1">
          <mxGeometry x="399" y="277" width="4" height="4" as="geometry" />
        </mxCell>
        <mxCell id="Q3F3CRCfY1M6JmlHT80E-38" value="" style="endArrow=none;dashed=1;html=1;rounded=0;exitX=0.5;exitY=0;exitDx=0;exitDy=0;" edge="1" parent="1" source="Q3F3CRCfY1M6JmlHT80E-5" target="Q3F3CRCfY1M6JmlHT80E-33">
          <mxGeometry width="50" height="50" relative="1" as="geometry">
            <mxPoint x="441" y="360" as="sourcePoint" />
            <mxPoint x="441" y="260" as="targetPoint" />
          </mxGeometry>
        </mxCell>
        <mxCell id="Q3F3CRCfY1M6JmlHT80E-33" value="" style="ellipse;whiteSpace=wrap;html=1;aspect=fixed;fillColor=none;fontColor=#ffffff;strokeColor=#6F0000;" vertex="1" parent="1">
          <mxGeometry x="439" y="277" width="4" height="4" as="geometry" />
        </mxCell>
        <mxCell id="Q3F3CRCfY1M6JmlHT80E-39" value="" style="endArrow=none;html=1;rounded=0;fillColor=#d80073;strokeColor=#A50040;" edge="1" parent="1">
          <mxGeometry width="50" height="50" relative="1" as="geometry">
            <mxPoint x="480" y="239" as="sourcePoint" />
            <mxPoint x="442.99999999998613" y="239" as="targetPoint" />
          </mxGeometry>
        </mxCell>
        <mxCell id="Q3F3CRCfY1M6JmlHT80E-24" value="" style="ellipse;whiteSpace=wrap;html=1;aspect=fixed;fillColor=none;fontColor=#ffffff;strokeColor=#6F0000;" vertex="1" parent="1">
          <mxGeometry x="439" y="237" width="4" height="4" as="geometry" />
        </mxCell>
        <mxCell id="Q3F3CRCfY1M6JmlHT80E-40" value="x" style="text;strokeColor=none;align=center;fillColor=none;html=1;verticalAlign=middle;whiteSpace=wrap;rounded=0;" vertex="1" parent="1">
          <mxGeometry x="530" y="344" width="60" height="30" as="geometry" />
        </mxCell>
        <mxCell id="Q3F3CRCfY1M6JmlHT80E-41" value="y" style="text;strokeColor=none;align=center;fillColor=none;html=1;verticalAlign=middle;whiteSpace=wrap;rounded=0;" vertex="1" parent="1">
          <mxGeometry x="298" y="170" width="60" height="30" as="geometry" />
        </mxCell>
        <mxCell id="Q3F3CRCfY1M6JmlHT80E-42" value="" style="ellipse;whiteSpace=wrap;html=1;aspect=fixed;fillColor=none;fontColor=#ffffff;strokeColor=#6F0000;" vertex="1" parent="1">
          <mxGeometry x="358" y="358" width="4" height="4" as="geometry" />
        </mxCell>
      </root>
    </mxGraphModel>
  </diagram>
</mxfile>
